<svg version="1.1" id="Layer_1" xmlns="http://www.w3.org/2000/svg" xmlns:xlink="http://www.w3.org/1999/xlink" x="0px" y="0px"
	 width="100%" viewBox="0 0 500 500" enable-background="new 0 0 500 500" xml:space="preserve">
<path fill="#000000" opacity="1.000000" stroke="none" 
	d="
M1.000000,129.000000 
	C1.000000,87.176987 1.035444,45.853878 0.923821,4.531167 
	C0.916006,1.638060 1.396450,0.910263 4.467344,0.912120 
	C168.759598,1.011467 333.051910,1.013355 497.344147,0.906121 
	C500.697937,0.903932 501.061279,1.944334 501.060089,4.842350 
	C500.992615,168.968002 500.990692,333.093689 501.072021,497.219330 
	C501.073547,500.264923 500.483521,501.085449 497.282471,501.083588 
	C333.156860,500.988617 169.031158,500.983856 4.905565,501.105438 
	C1.291705,501.108124 0.916569,500.129028 0.919086,496.907410 
	C1.014750,374.438324 1.000000,251.969162 1.000000,129.000000 
z"/>
<path fill="#F7EBEC" opacity="1.000000" stroke="none" 
	d="
M4.999002,436.000000 
	C4.999002,293.841095 5.022117,152.182190 4.893477,10.523401 
	C4.889389,6.020477 5.952906,4.888068 10.501604,4.891752 
	C170.826035,5.021586 331.150635,5.020710 491.475037,4.895185 
	C495.976929,4.891660 497.111053,5.953893 497.107361,10.503332 
	C496.977478,170.827774 496.978271,331.152344 497.104309,491.476776 
	C497.107849,495.982635 496.040314,497.111572 491.494904,497.107910 
	C331.170502,496.978546 170.845901,496.979248 10.521461,497.105225 
	C6.016372,497.108765 4.810052,496.052734 4.880977,491.494720 
	C5.166162,473.166962 4.999002,454.832184 4.999002,436.000000 
z"/>
<path fill="#B6AAAB" opacity="1.000000" stroke="none" 
	d="
M102.281860,49.553352 
	C102.494751,38.441235 113.816147,28.714382 124.484489,28.766073 
	C209.127792,29.176218 293.774445,29.128963 378.418762,28.841545 
	C390.064514,28.802002 400.163269,40.375324 400.033020,50.515961 
	C399.836243,65.842896 399.981842,81.174232 399.981842,96.503693 
	C399.981842,190.479980 399.982666,284.456268 399.980804,378.432556 
	C399.980530,391.824219 390.268127,401.915039 376.841553,401.926514 
	C293.029419,401.998077 209.217224,401.976776 125.405052,401.944366 
	C115.681496,401.940582 104.670158,395.807953 102.126282,382.250641 
	C102.615158,380.931824 102.505135,379.918640 102.504883,378.925476 
	C102.477074,269.288696 102.572906,159.651901 102.281860,49.553352 
z"/>
<path fill="#DDBED5" opacity="1.000000" stroke="none" 
	d="
M305.605713,433.225769 
	C307.710602,428.724762 311.337769,427.678253 315.439789,426.784851 
	C320.422607,425.699615 325.370972,426.029114 330.327759,426.177094 
	C332.649231,426.246368 334.058411,428.129974 334.987915,430.605896 
	C336.234100,432.271423 336.640930,433.870544 336.674011,435.569061 
	C336.806854,442.390320 336.963287,449.218445 336.600708,456.030640 
	C336.406952,459.670929 335.399750,463.036926 330.410217,463.251282 
	C324.795776,462.471924 324.731262,458.771362 324.963226,454.457123 
	C319.710999,449.737183 316.632507,450.800476 315.365356,457.343628 
	C314.463501,462.000549 312.687469,463.168640 307.313171,462.237061 
	C306.985748,462.049957 306.495026,462.040710 306.249634,462.038330 
	C303.581879,461.383453 302.889160,459.497467 302.594330,456.861481 
	C302.197479,451.433258 302.213135,446.444885 302.512421,441.015015 
	C302.530182,437.863770 302.638336,435.194336 305.605713,433.225769 
z"/>
<path fill="#ADA0BC" opacity="1.000000" stroke="none" 
	d="
M125.265182,462.392151 
	C114.659157,455.841614 111.052094,446.214050 115.472610,436.952820 
	C121.185226,424.984589 135.831451,422.417145 145.357391,431.730133 
	C146.541351,432.887665 147.626144,434.146545 148.939117,435.640259 
	C153.905411,442.859680 153.346771,451.223541 147.657562,457.837006 
	C142.026810,464.382507 133.344452,466.273010 125.265182,462.392151 
z"/>
<path fill="#ADA0BC" opacity="1.000000" stroke="none" 
	d="
M216.770615,457.315735 
	C218.258087,455.026733 219.531784,453.074524 222.584229,452.949646 
	C225.969345,450.438904 229.754150,452.143433 233.423569,450.963562 
	C229.630920,449.804962 225.790329,451.433014 222.153015,449.398743 
	C218.376770,448.965118 216.983490,446.957794 217.032745,443.626190 
	C217.083862,440.167969 217.137726,436.704834 217.011108,433.250427 
	C216.897995,430.164032 217.554413,427.545135 220.848999,426.645355 
	C223.927902,425.804504 225.800156,427.559906 227.126068,430.531433 
	C228.929260,433.255524 228.107544,437.054474 231.752182,438.740662 
	C238.812057,439.168732 238.914230,439.169739 238.977310,432.772980 
	C239.006622,429.799774 239.805679,427.472626 242.822021,426.649139 
	C245.926132,425.801605 247.774750,427.576660 249.083618,430.558838 
	C251.879105,439.446777 251.883865,448.064362 247.866486,456.045166 
	C243.961472,463.802704 233.628876,466.656616 223.290924,463.424530 
	C222.176239,463.110046 221.451248,463.039001 220.361786,462.964264 
	C217.352005,462.152649 216.207977,460.370972 216.770615,457.315735 
z"/>
<path fill="#ADA0BB" opacity="1.000000" stroke="none" 
	d="
M152.566406,439.256592 
	C153.252716,426.939758 151.322845,427.079773 165.408157,426.788696 
	C173.268646,426.626221 178.572678,430.369385 183.694061,435.818359 
	C188.562561,443.660736 186.280548,451.911865 185.952240,459.905945 
	C185.853317,462.314819 183.570618,463.800476 180.365631,463.310547 
	C176.109451,462.441254 175.112640,459.933533 174.917664,456.343750 
	C174.645157,451.326508 176.258224,446.148071 173.509262,441.038696 
	C172.358429,440.257019 171.502670,439.779572 170.523376,439.511597 
	C165.868607,438.237823 164.791672,438.941223 164.625488,443.682434 
	C164.468719,448.155243 164.763458,452.639709 164.478821,457.108215 
	C164.248840,460.718872 163.112625,463.677124 158.289917,463.302612 
	C155.782623,462.757019 154.124161,461.730103 153.101608,459.344604 
	C151.285370,457.536346 151.043640,455.449066 151.327911,453.518036 
	C152.006760,448.906708 151.782959,444.255920 152.566406,439.256592 
z"/>
<path fill="#DDBDD5" opacity="1.000000" stroke="none" 
	d="
M383.727570,452.718567 
	C387.160919,452.980164 390.303345,453.058502 393.441772,452.979523 
	C396.003632,452.915039 397.999298,453.613464 398.978699,456.602173 
	C400.271027,461.129730 399.264343,463.736145 395.300171,464.206604 
	C388.474487,465.016602 381.545349,465.754944 374.358948,463.354218 
	C373.225159,463.026489 372.485016,462.997314 371.374695,462.958405 
	C368.268127,462.095551 367.541138,460.275696 368.700562,457.312866 
	C368.958527,452.480591 368.874420,447.995453 369.017456,443.517548 
	C369.317535,434.124268 376.598663,426.809143 385.967133,427.088989 
	C390.035858,427.210541 395.184753,424.577423 398.006409,430.583252 
	C400.204865,434.667877 397.990692,436.473114 394.968475,437.780029 
	C392.956024,438.650269 390.746643,438.534210 388.599609,438.542664 
	C385.180786,438.556152 382.268280,439.487000 381.188782,443.088776 
	C380.146179,446.567505 379.979218,449.992523 383.727570,452.718567 
z"/>
<path fill="#DDBDD5" opacity="1.000000" stroke="none" 
	d="
M276.370331,463.327637 
	C272.496887,463.158020 271.216827,460.839783 271.099548,458.000702 
	C270.888123,452.881714 270.619141,447.695770 271.186676,442.628754 
	C272.293274,432.748718 279.321411,426.838654 289.507080,427.044525 
	C293.146820,427.118103 297.729858,425.065033 300.034851,430.564819 
	C301.230377,435.064362 300.169800,436.979736 296.100189,438.063202 
	C293.530304,438.747375 290.856140,438.348999 288.255280,438.737366 
	C284.383087,439.315521 283.352539,442.255981 282.902893,445.477570 
	C282.538361,448.089081 282.075592,450.965485 286.405945,451.465546 
	C289.741058,451.180603 292.659027,451.243134 295.569366,451.465668 
	C298.725555,451.707001 301.174316,453.003906 302.248230,456.729492 
	C302.591827,460.868530 301.025055,463.737244 297.429382,464.171387 
	C290.560455,465.000732 283.595337,465.762634 276.370331,463.327637 
z"/>
<path fill="#AEA1BC" opacity="1.000000" stroke="none" 
	d="
M187.635391,440.301971 
	C188.019150,437.338501 187.998322,434.703888 188.123001,432.076233 
	C188.262329,429.139557 189.653763,426.881927 192.640060,426.403473 
	C195.361694,425.967468 197.421524,427.224915 198.202316,430.481415 
	C200.728928,435.143707 199.317780,439.846741 199.626389,444.367371 
	C199.828354,447.325928 199.542801,450.365540 202.760162,452.604950 
	C205.705490,452.907532 208.325134,453.002899 210.942902,452.965515 
	C213.376633,452.930725 214.987701,454.001251 215.977264,456.589203 
	C216.758530,461.629608 215.811386,463.850586 211.918121,464.280151 
	C205.876251,464.946747 199.732178,465.673248 193.336914,463.380096 
	C192.202957,462.999176 191.472229,462.892456 190.375671,462.734497 
	C187.918823,462.205170 186.883530,460.558716 186.806030,458.748535 
	C186.547485,452.708801 185.711304,446.630157 187.635391,440.301971 
z"/>
<path fill="#DDBED5" opacity="1.000000" stroke="none" 
	d="
M338.632843,431.342346 
	C338.766083,428.009674 340.602478,426.554810 343.095337,426.284546 
	C345.936401,425.976562 347.633179,427.904724 348.861816,430.679871 
	C351.722961,434.503784 350.269165,438.616852 350.673126,442.461914 
	C351.024109,445.802826 349.740387,449.432739 352.720764,452.658630 
	C355.675079,452.965637 358.316559,453.031860 360.956116,452.985352 
	C363.383179,452.942566 365.085754,453.888458 365.981598,456.598999 
	C367.276398,461.119385 366.272125,463.655975 362.317596,464.211731 
	C356.488464,465.030945 350.544281,465.655975 344.357300,463.355347 
	C342.854431,462.796967 341.745239,462.536102 340.319702,462.134033 
	C338.647675,461.433075 337.732971,460.340240 337.674072,458.977264 
	C337.281097,449.885742 336.126862,440.766510 338.632843,431.342346 
z"/>
<path fill="#988E90" opacity="1.000000" stroke="none" 
	d="
M102.066620,49.551254 
	C103.498459,50.467625 102.967171,52.231724 102.967522,53.835747 
	C102.991272,161.658401 102.989937,269.481049 102.975037,377.303711 
	C102.974854,378.622498 102.771194,379.941284 102.402992,381.565002 
	C102.097328,380.872192 102.010773,379.874451 102.010788,378.876709 
	C102.012932,269.254791 102.021545,159.632858 102.066620,49.551254 
z"/>
<path fill="#D9CDD8" opacity="1.000000" stroke="none" 
	d="
M222.986481,463.537170 
	C225.897003,463.121735 228.892548,463.030762 231.888596,463.008820 
	C242.396362,462.931885 248.692352,456.854858 248.981125,446.342224 
	C249.113739,441.514374 249.036957,436.680786 249.112701,431.374237 
	C251.854340,430.988129 253.894913,432.235229 253.879272,434.990112 
	C253.840790,441.767426 254.797424,448.598633 252.978226,455.310364 
	C251.018219,462.541626 245.677536,466.823669 238.154144,466.986450 
	C234.831146,467.058380 231.504166,466.944458 228.181137,467.015442 
	C225.760559,467.067169 223.985016,466.227722 222.986481,463.537170 
z"/>
<path fill="#D8CCD8" opacity="1.000000" stroke="none" 
	d="
M152.630997,438.689819 
	C152.919052,445.276886 152.959412,451.685242 152.981842,458.565552 
	C148.060104,463.479279 143.431030,468.129150 135.755508,467.137939 
	C131.671738,466.610565 128.047394,465.760254 125.007805,462.477478 
	C138.368790,464.949860 147.060104,460.486847 150.421036,449.251617 
	C151.748718,444.813324 150.551575,440.788177 149.129333,436.316528 
	C150.816269,436.019562 151.601227,437.263550 152.630997,438.689819 
z"/>
<path fill="#D9CDD8" opacity="1.000000" stroke="none" 
	d="
M158.011322,463.460358 
	C162.046494,462.535034 163.306656,460.068542 163.064621,456.118744 
	C162.801987,451.832703 162.846603,447.509705 163.073975,443.219604 
	C163.183823,441.147064 161.625809,438.028809 164.753708,437.242798 
	C167.786987,436.480560 171.091965,436.725250 173.095383,440.441956 
	C168.745712,440.367889 167.603561,442.564423 167.910812,446.715820 
	C168.264984,451.501343 167.984207,456.333496 167.987427,461.145416 
	C167.989304,463.931091 166.908936,466.060974 164.089722,466.780426 
	C161.354431,467.478516 159.172043,466.649841 158.011322,463.460358 
z"/>
<path fill="#ECD9E2" opacity="1.000000" stroke="none" 
	d="
M286.270752,452.653015 
	C282.000885,453.513702 280.669586,451.528229 280.999237,447.782013 
	C281.850739,438.105347 284.104218,436.384033 291.838623,436.925232 
	C295.564209,437.185913 299.855133,437.478546 300.074921,431.340210 
	C302.205444,430.601593 303.502350,432.365265 305.616302,432.935730 
	C305.102783,435.001190 303.729095,436.872223 303.983551,439.638550 
	C302.289429,442.275818 299.825043,442.401520 297.320892,442.522003 
	C289.543793,442.896210 289.166443,443.215637 287.315643,450.557526 
	C287.152832,451.203400 286.897491,451.800690 286.270752,452.653015 
z"/>
<path fill="#ECD9E2" opacity="1.000000" stroke="none" 
	d="
M384.011475,452.533722 
	C379.983368,453.514435 378.876556,451.513733 378.939270,447.764252 
	C379.049286,441.182404 380.978485,437.493530 385.316162,437.061768 
	C387.773926,436.817078 390.286835,437.146545 392.750244,436.932892 
	C395.813019,436.667267 398.241577,435.492920 398.047485,431.357300 
	C401.572052,430.859070 402.915588,433.217224 402.817963,436.042084 
	C402.715637,439.002258 400.551422,440.663513 397.554993,440.969879 
	C396.734436,441.053772 395.899109,440.993073 395.070557,440.998810 
	C385.083557,441.068054 383.991211,442.163452 384.011475,452.533722 
z"/>
<path fill="#EBD7E1" opacity="1.000000" stroke="none" 
	d="
M338.538818,430.963226 
	C338.946533,439.252136 338.954865,447.556793 338.997559,455.861237 
	C339.006866,457.669861 338.706940,459.532318 339.833923,461.611115 
	C336.544434,468.186005 334.225494,468.594971 330.033813,463.387024 
	C333.853333,462.096954 335.097778,459.495087 335.036469,455.699493 
	C334.908417,447.771271 335.006287,439.839417 335.029388,431.436768 
	C336.082214,430.969269 337.117004,430.974091 338.538818,430.963226 
z"/>
<path fill="#ECD9E2" opacity="1.000000" stroke="none" 
	d="
M373.988342,463.454102 
	C380.440613,463.036774 386.916565,462.958801 393.391113,463.022217 
	C397.034363,463.057861 399.092255,461.622070 399.028687,457.375977 
	C402.039093,457.830048 404.485474,459.559937 403.697601,462.892944 
	C402.983459,465.914093 400.398529,467.122131 397.138489,467.042694 
	C390.983612,466.892670 384.822449,466.985077 378.664001,467.005615 
	C376.369019,467.013245 374.206146,466.906860 373.988342,463.454102 
z"/>
<path fill="#ECD9E2" opacity="1.000000" stroke="none" 
	d="
M276.036926,463.407288 
	C282.457245,463.023987 288.938751,462.947845 295.418488,463.022675 
	C299.092285,463.065063 301.083679,461.552399 301.072571,457.349060 
	C301.755127,456.403992 302.491943,456.267731 303.628784,456.745850 
	C303.794159,458.738556 304.551056,460.148621 305.845886,461.723206 
	C306.022339,465.660706 304.027588,467.035522 300.614990,467.010925 
	C294.116364,466.964111 287.616943,466.965729 281.118317,467.013062 
	C278.680664,467.030792 276.925446,466.169525 276.036926,463.407288 
z"/>
<path fill="#ECD9E2" opacity="1.000000" stroke="none" 
	d="
M343.987152,463.456116 
	C349.441498,463.038361 354.920135,462.954407 360.396912,463.022125 
	C364.042755,463.067200 366.092712,461.615295 366.030212,457.373047 
	C366.770111,456.974915 367.493988,456.979950 368.578796,456.973724 
	C368.875946,458.956238 369.086792,460.861786 370.834290,462.638367 
	C370.017426,466.119049 367.917053,467.219757 364.590149,467.065430 
	C359.287170,466.819427 353.964447,466.983368 348.650177,467.005554 
	C346.357635,467.015137 344.204681,466.898224 343.987152,463.456116 
z"/>
<path fill="#ECD9E2" opacity="1.000000" stroke="none" 
	d="
M307.195129,462.312012 
	C313.518829,461.810883 313.746033,461.564819 313.996826,454.217865 
	C314.064362,452.240479 313.780365,449.548523 316.735870,450.157501 
	C319.547974,450.736877 324.166779,447.128784 324.964539,453.610840 
	C322.175385,454.161316 318.554596,452.857788 318.962036,457.992950 
	C319.231384,461.387878 318.993958,464.757812 315.179504,466.367889 
	C311.171051,468.059906 309.737823,464.371918 307.195129,462.312012 
z"/>
<path fill="#D8CCD8" opacity="1.000000" stroke="none" 
	d="
M193.012131,463.468201 
	C198.386063,463.071198 203.845825,462.849091 209.288330,463.064056 
	C213.290298,463.222198 215.659943,461.899048 216.043777,457.340698 
	C216.076447,456.947968 216.538071,456.981720 216.769348,456.990875 
	C217.266251,459.105927 218.306137,460.823792 219.844269,462.664612 
	C219.598602,466.007812 217.641464,467.017395 214.820602,467.003540 
	C209.238266,466.976135 203.655411,466.962433 198.073349,467.010376 
	C195.670563,467.031006 193.955948,466.137939 193.012131,463.468201 
z"/>
<path fill="#D8CCD7" opacity="1.000000" stroke="none" 
	d="
M187.721985,439.784241 
	C187.995911,445.291016 188.071640,450.612640 188.009750,455.932678 
	C187.983719,458.169983 188.353210,460.223633 189.829163,462.376801 
	C186.978622,468.178009 183.710312,468.546814 180.012451,463.453247 
	C183.639313,462.519470 185.283981,460.515015 185.079025,456.620850 
	C184.733276,450.051697 185.630310,443.414001 183.905151,436.501404 
	C185.717178,436.605835 186.476471,438.220428 187.721985,439.784241 
z"/>
<path fill="#D8CCD7" opacity="1.000000" stroke="none" 
	d="
M203.054718,452.414246 
	C199.437408,453.496033 197.857666,452.062836 197.995438,448.270020 
	C198.194702,442.784271 198.090775,437.287506 198.199158,431.315979 
	C201.784088,431.153809 203.058136,433.215210 203.007248,436.558319 
	C202.929123,441.690399 203.009613,446.824921 203.054718,452.414246 
z"/>
<path fill="#ECD9E2" opacity="1.000000" stroke="none" 
	d="
M353.023682,452.485413 
	C350.126587,453.361816 348.842865,452.287903 348.938385,449.172668 
	C349.114410,443.430756 348.990601,437.679688 349.000000,431.463257 
	C352.031219,431.453918 353.031403,433.410065 353.011200,436.238159 
	C352.973572,441.499237 353.008301,446.760834 353.023682,452.485413 
z"/>
<path fill="#D3C7D4" opacity="1.000000" stroke="none" 
	d="
M221.936371,449.532715 
	C226.114365,449.157593 230.376724,449.062073 234.639252,449.054962 
	C235.693649,449.053192 237.285248,448.619232 237.438568,450.202576 
	C237.562683,451.484070 236.167206,452.017670 235.093674,452.383698 
	C231.419876,453.636261 227.610352,452.749420 223.403809,452.961060 
	C222.632507,451.900116 222.326645,450.872559 221.936371,449.532715 
z"/>
<path fill="#D8CCD8" opacity="1.000000" stroke="none" 
	d="
M232.012421,438.560120 
	C225.339920,440.028992 227.243118,435.194550 227.150345,431.323669 
	C232.029083,431.182098 232.147705,434.579041 232.012421,438.560120 
z"/>
<path fill="#010101" opacity="1.000000" stroke="none" 
	d="
M152.000031,32.846901 
	C226.164886,32.846958 299.830933,33.063046 373.493591,32.660995 
	C387.862762,32.582569 396.325775,41.824066 396.282379,55.275627 
	C395.938690,161.938568 395.921265,268.603668 396.285065,375.266479 
	C396.336121,390.240112 386.220978,397.963226 373.340454,397.929779 
	C291.842987,397.718140 210.344727,397.828308 128.846725,397.817078 
	C113.514038,397.814972 106.116241,390.407532 106.115623,375.112122 
	C106.111343,268.448090 106.232254,161.783737 105.955750,55.120399 
	C105.923042,42.501614 113.875816,31.781765 128.506561,32.756973 
	C136.139145,33.265720 143.833542,32.846821 152.000031,32.846901 
z"/>
<path fill="#F6EAEC" opacity="1.000000" stroke="none" 
	d="
M303.967163,456.506042 
	C303.238434,456.972595 302.523010,456.974609 301.451965,456.961243 
	C300.510651,454.034515 298.616577,452.936493 295.783417,452.990051 
	C292.838165,453.045715 289.890930,452.993927 286.484985,452.974976 
	C286.027222,451.321960 285.880341,449.666656 286.059601,448.047455 
	C286.533112,443.770935 289.584351,441.123932 293.938629,440.994263 
	C297.027924,440.902313 300.180634,441.445038 303.563782,440.070984 
	C303.975586,445.360474 303.978027,450.700989 303.967163,456.506042 
z"/>
<path fill="#ECD9E2" opacity="1.000000" stroke="none" 
	d="
M318.248840,440.999146 
	C316.476593,440.772552 314.423096,441.609070 314.316559,439.363831 
	C314.227203,437.481476 315.768036,436.549927 317.493073,436.102051 
	C317.652069,436.060791 317.834686,436.003326 317.982605,436.042633 
	C320.353729,436.672424 324.484650,434.108978 324.746460,438.416565 
	C325.014374,442.824615 320.838837,440.301331 318.248840,440.999146 
z"/>
<path fill="#F5E9EA" opacity="1.000000" stroke="none" 
	d="
M138.559540,439.817261 
	C141.792709,443.590088 141.353073,447.176514 138.650528,450.406830 
	C135.997986,453.577271 132.481308,453.795166 128.448898,452.048035 
	C125.582405,448.511810 127.207970,445.529205 129.255707,442.941620 
	C131.452194,440.165985 134.297958,438.223663 138.559540,439.817261 
z"/>
<path fill="#D8CCD7" opacity="1.000000" stroke="none" 
	d="
M138.781326,439.748962 
	C131.508606,440.512634 128.453659,443.608093 128.085815,451.455627 
	C123.520287,448.376282 122.665497,443.706848 125.882011,439.671478 
	C129.175278,435.539795 133.432404,435.458435 138.781326,439.748962 
z"/>
<path fill="#F7EAEB" opacity="1.000000" stroke="none" 
	d="
M229.000229,59.617805 
	C262.976196,59.617802 296.459961,60.043476 329.924744,59.432140 
	C345.847046,59.141273 355.200958,71.333641 354.932770,84.264671 
	C354.584015,101.078712 354.899689,117.905647 354.829987,134.726624 
	C354.768494,149.565247 345.226868,159.023315 330.473145,159.024033 
	C276.511871,159.026672 222.550613,159.028702 168.589355,159.022476 
	C154.786667,159.020874 145.086044,149.413589 145.022690,135.515564 
	C144.942963,118.028481 144.942062,100.540482 145.022720,83.053406 
	C145.087570,68.992264 154.482468,59.664345 168.543137,59.630444 
	C188.528717,59.582253 208.514511,59.617954 229.000229,59.617805 
z"/>
<path fill="#DCBCD4" opacity="1.000000" stroke="none" 
	d="
M263.115082,213.053528 
	C263.185699,208.741898 262.929047,204.919022 263.837311,201.129181 
	C266.230377,191.144058 275.181183,184.020981 285.604095,184.005020 
	C301.093719,183.981308 316.583405,183.977417 332.073029,184.005554 
	C344.517303,184.028168 354.023407,193.045578 354.236603,205.459137 
	C354.465393,218.779190 354.447235,232.109238 354.222382,245.429611 
	C354.021606,257.324188 344.955750,266.522064 332.925720,266.747681 
	C316.942017,267.047485 300.944458,267.043243 284.960480,266.751129 
	C272.557831,266.524475 263.403717,256.804810 263.161072,244.022995 
	C262.968262,233.866730 263.117615,223.703949 263.115082,213.053528 
z"/>
<path fill="#AB9EBA" opacity="1.000000" stroke="none" 
	d="
M155.925995,209.078125 
	C154.084732,193.473053 167.771362,183.015121 180.551926,183.788910 
	C195.493088,184.693512 210.530991,183.990341 225.526901,184.003372 
	C238.945084,184.015045 248.107056,192.944061 248.253098,206.412567 
	C248.392197,219.240738 248.416992,232.073593 248.236954,244.900818 
	C248.060074,257.502838 239.087296,266.591888 226.454391,266.766815 
	C210.295212,266.990540 194.128815,266.970337 177.968903,266.775909 
	C165.022461,266.620209 155.970520,257.102081 155.936432,244.055588 
	C155.906403,232.558823 155.927521,221.061935 155.925995,209.078125 
z"/>
<path fill="#DCBCD4" opacity="1.000000" stroke="none" 
	d="
M245.572174,298.733887 
	C247.315262,302.467133 247.803116,306.080994 247.811417,309.764038 
	C247.838455,321.747253 247.940247,333.732056 247.791275,345.713470 
	C247.615112,359.879608 238.256042,368.996429 224.169052,368.999481 
	C209.189941,369.002716 194.210800,369.015472 179.231705,368.995544 
	C166.476440,368.978577 156.975220,359.948700 156.793900,347.327118 
	C156.605026,334.181549 156.622192,321.029663 156.784088,307.883423 
	C156.932709,295.814392 166.159271,286.320435 178.219940,286.127075 
	C194.193558,285.870941 210.178925,285.836212 226.150253,286.155853 
	C234.766159,286.328278 241.214661,290.784149 245.572174,298.733887 
z"/>
<path fill="#AB9EBA" opacity="1.000000" stroke="none" 
	d="
M267.037964,296.182770 
	C272.076172,289.183929 278.662354,286.027832 286.890289,286.051117 
	C301.535858,286.092590 316.187866,286.327484 330.825378,285.981659 
	C343.257507,285.687958 354.904266,295.794617 354.395081,308.916199 
	C353.911438,321.379303 354.402649,333.877258 354.276825,346.358002 
	C354.139038,360.025635 344.934296,368.988770 331.273193,368.997162 
	C316.294647,369.006378 301.316132,369.006958 286.337585,368.996918 
	C273.480469,368.988312 263.551880,359.896484 263.220612,347.174683 
	C262.882843,334.202362 263.073792,321.213684 263.188263,308.233551 
	C263.225342,304.026337 264.337677,300.009033 267.037964,296.182770 
z"/>
<path fill="#F6EAEB" opacity="1.000000" stroke="none" 
	d="
M122.976921,258.001465 
	C122.978035,252.507141 123.051620,247.511017 122.955887,242.518158 
	C122.887032,238.926941 124.913040,237.176971 128.081085,237.103516 
	C131.329391,237.028198 133.260422,238.864120 133.257751,242.406326 
	C133.237717,269.044495 133.246033,295.682678 133.266022,322.320862 
	C133.268738,325.946991 131.374878,327.393372 127.933762,327.293213 
	C124.433403,327.191315 122.936913,325.460480 122.947220,321.933990 
	C123.009026,300.789825 122.977310,279.645386 122.976921,258.001465 
z"/>
<path fill="#F58495" opacity="1.000000" stroke="none" 
	d="
M279.758606,122.505264 
	C268.881378,114.346458 264.472137,97.871086 276.568359,88.662376 
	C281.551392,84.868858 290.471252,85.453743 296.696411,90.809586 
	C297.680359,92.607750 296.818756,93.985085 296.149719,95.220505 
	C294.017151,99.158592 293.018494,103.482895 291.474182,107.963074 
	C291.057129,108.816391 290.721588,109.343925 290.264191,110.139694 
	C290.018799,110.558464 289.917297,110.721596 289.653625,111.116722 
	C289.378448,111.496132 289.265472,111.643562 288.824951,112.229340 
	C288.301270,112.973915 288.115814,113.286537 287.821411,113.856216 
	C287.621002,114.275970 287.538696,114.444107 287.322876,114.861786 
	C286.808197,115.767548 286.371979,116.382095 285.610138,117.080238 
	C285.088287,117.402840 284.771118,117.531174 284.234680,117.711235 
	C283.904541,118.201241 284.050262,118.437096 284.617462,118.766113 
	C285.249634,122.882133 282.873230,123.001999 279.758606,122.505264 
z"/>
<path fill="#F58393" opacity="1.000000" stroke="none" 
	d="
M300.222412,141.234375 
	C298.691437,140.239471 297.460602,139.436523 296.023865,138.392487 
	C295.309357,137.143082 296.042969,136.615936 296.886230,135.853699 
	C297.308502,135.569382 297.482208,135.466370 297.921112,135.226898 
	C298.881561,134.760361 299.582367,134.437561 300.122498,133.460632 
	C300.681946,132.256927 300.907104,131.233505 301.669556,130.130249 
	C302.214752,129.695343 302.566315,129.650757 302.846130,129.579773 
	C302.708771,129.134583 302.657440,128.954376 302.621277,128.492279 
	C302.797607,127.659370 303.110901,127.199371 303.682739,126.584045 
	C304.130341,126.141068 304.385132,125.891747 304.801575,125.439484 
	C305.067688,125.102638 305.169434,124.965950 305.409973,124.619217 
	C305.548798,124.409180 305.802673,123.982178 305.923950,123.770142 
	C306.045227,123.558113 306.291901,123.146034 306.424133,122.952057 
	C306.556396,122.758087 306.844177,122.409248 307.159180,122.130905 
	C307.474152,121.852554 307.792694,121.664520 307.921387,121.564682 
	C308.050110,121.464836 307.791931,121.199280 307.588074,121.137444 
	C307.384186,121.075607 306.927612,120.941902 306.693420,120.838455 
	C306.134277,120.545731 305.861694,120.296379 305.506622,119.719757 
	C305.328552,119.002663 305.359924,118.577950 305.607483,117.852654 
	C306.963989,115.851044 308.992432,114.912766 308.011902,111.810349 
	C307.296204,109.545822 309.480682,106.901833 311.078705,104.869911 
	C312.524231,103.031883 313.545593,103.940880 313.866272,105.927765 
	C313.963745,105.871887 314.088165,105.837158 314.152405,105.755219 
	C314.251495,105.628792 314.309387,105.470039 314.546082,105.075180 
	C315.087097,104.379158 315.555389,104.050804 316.590668,103.425064 
	C317.103394,103.055534 316.760162,103.277855 316.571594,103.387306 
	C316.382996,103.496758 315.922516,103.565735 315.682617,103.518082 
	C315.124054,103.320572 314.848297,103.111526 314.436615,102.630157 
	C313.987915,101.883080 313.781738,101.334068 313.480438,100.495575 
	C313.344269,100.006668 313.304932,99.806534 313.324799,99.002251 
	C313.477264,98.220329 313.570526,98.042564 313.880676,97.660751 
	C314.426331,97.250381 314.761963,97.055992 315.337524,96.721199 
	C315.838806,96.297760 316.063812,95.995605 316.388977,95.391281 
	C316.645233,94.941299 316.766571,94.766983 317.131714,94.375008 
	C319.598114,92.432304 321.524506,92.417015 323.160156,95.423492 
	C323.425751,95.932693 323.509796,96.146408 323.650330,96.697838 
	C323.818604,99.177788 322.242706,100.655533 321.523499,102.783630 
	C321.286316,103.620338 320.927185,104.065010 320.567078,104.791267 
	C320.507538,105.038460 320.335724,105.498672 320.225891,105.709717 
	C320.116058,105.920761 319.676910,105.760269 319.862671,105.905746 
	C320.048431,106.051231 320.265106,105.620270 320.373291,105.400101 
	C320.540375,104.841019 320.661407,104.524719 320.987244,104.005096 
	C321.629486,103.204651 321.451691,102.283257 322.453125,101.767128 
	C322.926392,101.798080 323.105957,101.880386 323.466553,102.194969 
	C323.986511,103.118324 324.063690,103.864441 324.227081,105.071617 
	C324.345947,105.525810 324.758362,105.781075 324.963257,105.926559 
	C325.390015,106.347794 325.534973,106.660995 325.636902,107.279091 
	C325.625092,107.740822 325.597809,107.926170 325.493652,108.384293 
	C325.236176,109.201736 325.022430,109.734459 324.745209,110.554688 
	C324.263702,111.792976 324.402405,112.778046 324.510010,114.084831 
	C324.209595,116.051079 323.466522,117.355850 321.505676,118.086441 
	C320.568512,118.348038 319.933685,118.432640 318.991455,118.428024 
	C318.346680,118.365334 318.238312,118.120934 318.183167,117.828903 
	C318.004395,118.107231 318.097595,118.337723 318.568298,118.811012 
	C318.575684,121.293320 318.296295,123.415298 316.159515,125.090881 
	C315.689880,125.323135 315.493652,125.392502 314.993347,125.481369 
	C314.256195,125.849220 314.261444,124.409218 313.699219,125.557655 
	C313.652008,126.054932 313.610870,126.254196 313.473022,126.747787 
	C312.494965,128.671127 312.322571,130.798279 309.903198,131.591614 
	C309.035004,131.615524 308.476227,131.641418 307.820099,132.241028 
	C307.159607,133.086792 306.694153,133.721481 306.136414,134.662735 
	C305.673920,135.460281 305.340332,135.978500 304.847076,136.767502 
	C304.550018,137.199493 304.423370,137.367340 304.099304,137.778137 
	C303.164948,138.672379 303.349640,139.545547 303.219849,140.693207 
	C302.352936,141.840988 301.454102,141.736526 300.222412,141.234375 
z"/>
<path fill="#F57F90" opacity="1.000000" stroke="none" 
	d="
M312.910004,126.359558 
	C313.006439,125.971405 313.003113,125.490196 313.000305,125.249603 
	C313.169556,124.888260 313.341644,124.767502 313.772156,124.827469 
	C314.030579,125.008186 314.480225,125.009850 314.705048,125.011108 
	C316.591614,125.049110 317.985199,124.665886 317.963165,122.637550 
	C317.942230,120.710777 319.026886,119.186302 319.876343,117.258652 
	C322.113098,117.317940 322.915558,116.047211 323.722168,114.232925 
	C324.974304,110.043137 327.528107,106.729454 328.821716,102.525337 
	C329.179871,101.847321 329.400360,101.473106 329.769897,100.822350 
	C330.274445,99.777832 330.442261,98.971291 330.474854,97.803391 
	C331.328339,96.070137 330.893494,93.721298 333.666077,93.811081 
	C338.562988,102.989845 336.748047,110.948555 330.301056,118.278343 
	C326.711609,122.359299 323.269592,126.569946 319.494812,130.929749 
	C315.314026,132.269730 314.143219,129.392685 312.910004,126.359558 
z"/>
<path fill="#F6A9B4" opacity="1.000000" stroke="none" 
	d="
M314.708344,101.720993 
	C315.119995,102.222466 315.325989,102.494591 315.764008,102.880981 
	C316.396271,103.376183 316.539062,103.836990 316.207825,104.693909 
	C314.387817,105.942062 315.745544,108.388123 313.689392,109.245682 
	C312.180817,108.147316 313.700897,106.172638 312.443298,104.767456 
	C311.113220,107.269127 309.825623,109.690887 308.566956,112.058266 
	C309.331024,113.646629 310.981567,111.370941 311.516907,112.805786 
	C311.939331,113.938034 310.836212,114.515503 310.033508,115.059975 
	C308.817352,115.884903 308.399200,117.618614 306.403015,117.969208 
	C305.922302,118.143959 305.780762,118.280518 305.373291,118.536560 
	C304.572540,118.782822 304.026245,118.874748 303.349182,119.340271 
	C302.914551,119.749466 302.683441,119.993141 302.330322,120.439095 
	C302.199677,120.633194 302.014984,121.033020 301.994080,121.243332 
	C301.973145,121.453651 302.146484,121.843300 302.319763,121.983063 
	C302.944031,122.340874 303.426514,122.479408 304.112793,122.857162 
	C304.420746,123.221680 304.502380,123.403839 304.616821,123.890167 
	C304.599579,125.585251 303.473724,126.371758 302.658569,127.697998 
	C302.359406,128.138443 302.233368,128.310989 301.884857,128.715149 
	C301.341431,129.233292 301.015961,129.514587 300.450989,130.016388 
	C298.216888,133.411530 294.562775,133.304321 291.329865,134.764740 
	C290.101959,134.175873 289.155518,133.410233 288.040466,132.384964 
	C288.860291,129.123093 288.860291,129.121490 291.472504,129.103058 
	C291.509766,129.102798 291.548737,129.343719 291.586914,129.472076 
	C291.821564,129.118698 291.768799,128.680710 291.925629,128.306656 
	C293.855103,123.704994 296.798004,119.725761 299.797058,115.393181 
	C300.604797,112.717003 302.299194,111.176476 304.219116,109.506088 
	C304.231354,108.983009 304.238556,108.769524 304.304626,108.233185 
	C306.622406,105.517410 308.395081,102.893143 309.456177,99.686005 
	C309.981567,98.098145 310.285034,95.145592 313.585876,96.962799 
	C313.608795,97.739883 313.605927,98.190964 313.886780,98.910721 
	C314.096649,99.178909 314.165802,99.455208 314.160736,99.597534 
	C314.051758,100.367287 314.121338,100.960342 314.708344,101.720993 
z"/>
<path fill="#F58E9D" opacity="1.000000" stroke="none" 
	d="
M300.790741,114.822418 
	C298.042389,120.238976 295.010834,125.424248 291.979248,130.609512 
	C289.942474,128.433777 289.568451,131.223724 288.161072,131.958252 
	C285.094788,129.125076 281.044647,127.290115 279.508301,122.748871 
	C280.365936,120.662079 285.477631,123.246750 283.240295,118.222397 
	C283.059479,117.156120 283.003418,116.162430 284.559021,116.866653 
	C285.216705,116.982338 285.647491,117.026825 286.373444,117.217361 
	C288.778473,118.362335 288.982788,116.413231 289.745636,115.358421 
	C290.624939,114.142616 291.046844,112.194496 293.485931,113.497307 
	C293.889526,114.190086 294.025330,114.628670 294.144287,115.429611 
	C294.625885,116.537498 293.056793,117.883896 295.086060,117.979218 
	C296.681122,116.104141 297.864777,114.126801 300.790741,114.822418 
z"/>
<path fill="#F58393" opacity="1.000000" stroke="none" 
	d="
M301.305939,114.833710 
	C298.695862,115.051971 297.641449,116.935158 296.146851,118.703949 
	C294.640930,119.364494 294.453186,118.336761 294.123962,117.102859 
	C294.368988,115.195641 294.278351,113.583679 294.932007,111.753494 
	C295.196075,111.260696 295.321075,111.075287 295.686066,110.658012 
	C296.662048,109.920555 297.459442,109.619102 298.644775,109.828461 
	C299.396454,110.405945 299.485291,110.980904 299.474304,111.866043 
	C299.703796,112.471176 298.801422,112.419289 299.340759,112.551483 
	C299.605316,111.249931 299.451508,110.310684 298.466003,109.288025 
	C298.250427,106.773079 299.039246,104.854858 300.541626,102.841576 
	C301.434509,102.233353 302.115906,102.103745 303.164581,102.243492 
	C303.928558,102.561401 304.051971,103.198601 304.294250,103.349419 
	C304.850739,103.695900 304.800446,102.924942 304.851562,102.651421 
	C305.035919,101.665039 305.429565,100.782814 306.126343,99.665512 
	C308.169891,96.659714 310.318390,94.077286 310.933533,90.338921 
	C311.100677,89.825974 311.180573,89.627159 311.436707,89.164238 
	C312.176910,88.294426 312.973480,87.991730 313.740540,87.174301 
	C314.933594,86.885941 315.941254,86.832451 317.326843,86.731735 
	C317.918427,86.776642 318.132111,86.868790 318.526398,87.261154 
	C319.097717,88.750305 318.795074,89.875122 318.265747,91.318268 
	C318.044800,91.858849 317.948059,92.071602 317.689606,92.595535 
	C316.269623,94.284058 315.971619,96.296585 314.231750,97.765091 
	C313.985840,98.012161 313.999786,98.000099 314.005859,97.993294 
	C313.843994,98.109779 313.676025,98.233070 313.253754,98.174591 
	C312.837341,97.024742 312.472107,96.176399 311.786530,97.633713 
	C310.754303,99.827805 309.956787,102.131927 309.048065,104.384666 
	C308.280060,106.288567 307.092072,107.774895 304.966492,108.641212 
	C304.919342,108.932091 304.683746,109.306076 304.868408,109.184654 
	C305.732758,111.429115 305.743256,111.551476 303.644348,111.731621 
	C301.678467,111.900352 302.384308,113.771034 301.305939,114.833710 
z"/>
<path fill="#F593A1" opacity="1.000000" stroke="none" 
	d="
M312.733948,126.187927 
	C314.978699,127.494270 315.775177,130.305618 318.869049,131.065277 
	C315.970215,138.445297 306.533447,143.665588 300.108154,141.327026 
	C300.796356,140.869095 301.670380,140.695786 302.771362,140.274658 
	C302.341949,139.020309 302.892578,138.255112 303.741516,137.240845 
	C303.979828,136.979782 304.000000,137.000000 303.989258,136.989868 
	C304.426239,136.601883 304.786316,136.162903 304.977539,135.299683 
	C304.992584,133.980057 305.367432,133.110336 306.327148,132.200317 
	C307.187805,131.731628 307.549042,131.068192 308.541077,130.903961 
	C311.763885,130.785568 310.924225,127.665199 312.733948,126.187927 
z"/>
<path fill="#F57D8F" opacity="1.000000" stroke="none" 
	d="
M293.310638,114.074387 
	C289.721863,114.173820 291.108521,118.008675 288.613525,119.421844 
	C286.278839,120.744202 287.180145,118.649452 286.303955,118.205414 
	C285.359009,116.739540 286.725464,115.770111 286.805969,114.284164 
	C287.018250,113.988358 286.991119,113.994583 286.994141,114.008179 
	C287.433838,113.585381 287.498566,112.993294 287.838135,112.211884 
	C288.017426,111.982559 287.989655,111.990677 287.988281,112.005081 
	C288.173981,111.884773 288.361053,111.750053 288.873169,111.496902 
	C291.427307,109.253494 291.811279,106.320793 292.831299,103.610397 
	C294.247864,99.846176 294.744720,95.278290 299.668976,93.837189 
	C300.219482,94.865341 300.523376,95.645126 300.899414,96.731506 
	C301.363800,97.616493 301.236267,98.201324 300.848328,99.059082 
	C300.482483,99.674843 300.260986,100.018761 299.901245,100.636597 
	C299.411072,101.675186 299.181122,102.478264 298.930542,103.625870 
	C297.932648,106.079529 297.736237,108.471680 296.228333,110.730560 
	C295.990479,110.990364 296.000000,110.999695 295.994720,110.996445 
	C295.053802,111.954460 294.885132,113.480904 293.310638,114.074387 
z"/>
<path fill="#F59AA7" opacity="1.000000" stroke="none" 
	d="
M333.891815,93.689743 
	C331.586456,94.100159 333.458496,97.306755 331.156372,97.753998 
	C330.567444,98.155914 330.163940,98.117477 329.604187,97.583405 
	C328.968079,96.429466 329.174347,95.325897 328.300659,94.321808 
	C327.275726,93.261391 326.756989,93.466408 326.280701,94.783203 
	C325.932678,95.088203 325.768555,95.173065 325.343079,95.264557 
	C325.081757,95.271194 324.604492,95.186363 324.376709,95.212555 
	C324.148895,95.238739 323.779480,95.511093 323.391174,95.754128 
	C321.311249,95.148994 319.789978,93.408737 317.309082,94.978760 
	C316.343475,94.311302 316.497681,93.493965 316.769653,92.342117 
	C316.975494,91.991608 316.994385,92.016022 316.978516,92.015213 
	C317.756195,90.985497 318.477997,89.901543 319.599823,88.726959 
	C321.046936,87.987648 322.128479,87.247032 323.608521,86.567879 
	C328.030121,87.545769 331.415619,89.774529 333.891815,93.689743 
z"/>
<path fill="#F6AFBA" opacity="1.000000" stroke="none" 
	d="
M299.818665,93.787163 
	C296.188293,96.492477 295.388000,100.719894 293.682343,104.339470 
	C292.459167,106.935127 293.093384,110.439964 289.448242,112.057053 
	C288.936157,111.925972 288.790619,111.747681 288.800720,111.261246 
	C288.956390,110.953117 289.003571,110.979958 288.976685,110.983337 
	C289.513519,110.548058 289.496582,109.857468 289.821381,108.962891 
	C291.913574,102.883224 293.027924,96.765366 296.813629,91.330704 
	C297.886810,91.844200 298.804260,92.666489 299.818665,93.787163 
z"/>
<path fill="#F58495" opacity="1.000000" stroke="none" 
	d="
M300.888885,128.136932 
	C301.066162,127.944839 301.446686,127.866943 301.640076,127.849152 
	C302.223999,127.877289 302.512451,128.068512 302.821838,128.669632 
	C302.960968,128.911255 302.976868,128.944534 302.982361,128.962128 
	C303.091858,129.165298 303.195923,129.350845 303.095490,129.781372 
	C301.643494,130.893860 302.305237,132.487122 301.320099,133.766190 
	C300.283295,134.643448 299.169952,134.774704 298.226074,135.777954 
	C298.008362,135.997910 298.000183,136.000916 297.997375,136.004242 
	C295.993988,137.274200 294.217377,136.627548 292.197571,135.262604 
	C291.882385,135.159348 291.457794,135.079041 291.253113,135.010269 
	C292.332733,130.873123 297.630157,132.704727 299.625702,129.134216 
	C300.169861,128.767639 300.442535,128.550629 300.888885,128.136932 
z"/>
<path fill="#F593A1" opacity="1.000000" stroke="none" 
	d="
M298.367493,103.269363 
	C298.158539,102.167671 298.291992,101.307747 298.671936,100.227768 
	C299.177856,99.786835 299.427063,99.554985 299.836731,99.122101 
	C300.258606,98.463570 300.509827,97.995026 300.866272,97.282288 
	C301.465790,97.301811 301.960022,97.565521 302.730164,97.885582 
	C303.940613,98.227455 304.585022,98.876770 305.291779,99.955841 
	C305.613831,101.266098 305.341736,102.111641 304.253357,102.906494 
	C303.203064,103.018005 302.483948,103.014427 301.405334,103.004135 
	C300.360596,103.593376 299.583344,103.770737 298.367493,103.269363 
z"/>
<path fill="#F7BEC6" opacity="1.000000" stroke="none" 
	d="
M305.469055,99.558594 
	C304.088654,99.933823 303.253357,99.734680 303.041077,98.274971 
	C304.474426,95.116386 304.566040,91.381973 308.590485,89.975479 
	C310.068909,91.506958 308.706726,92.717255 308.218994,94.360840 
	C308.002380,94.838890 307.911774,95.027733 307.678833,95.495087 
	C306.909515,96.849648 306.469879,98.016403 305.469055,99.558594 
z"/>
<path fill="#F58393" opacity="1.000000" stroke="none" 
	d="
M323.512878,86.254333 
	C323.296112,87.925194 322.637665,89.370522 320.346191,89.077057 
	C319.479584,88.834030 319.090759,88.424065 318.617004,87.670914 
	C318.316101,87.316162 318.194153,87.190811 317.888458,86.874985 
	C319.414734,85.548241 321.274963,85.822067 323.512878,86.254333 
z"/>
<path fill="#F6A9B4" opacity="1.000000" stroke="none" 
	d="
M292.075714,135.413147 
	C293.938751,133.764572 295.291107,136.994339 297.641876,135.995010 
	C297.388824,136.549393 296.783112,137.091202 295.997681,137.892197 
	C294.160431,138.001160 293.263000,136.765121 292.075714,135.413147 
z"/>
<path fill="#F58E9D" opacity="1.000000" stroke="none" 
	d="
M307.385559,95.102165 
	C307.593292,93.540855 308.173584,92.070312 308.847076,90.268845 
	C308.940277,89.937927 309.393005,89.874718 309.896851,90.123497 
	C310.940002,92.757675 310.026367,94.346596 307.385559,95.102165 
z"/>
<path fill="#F593A1" opacity="1.000000" stroke="none" 
	d="
M309.886322,89.882774 
	C309.767914,88.049507 310.489563,86.958405 312.788574,86.900864 
	C313.518555,87.667603 313.085052,88.182167 312.279846,88.851852 
	C311.986969,89.033424 311.990295,88.986206 312.013519,88.981583 
	C311.621002,89.475639 311.267548,90.043449 310.303925,90.134705 
	C310.003662,90.002213 309.923737,89.924210 309.886322,89.882774 
z"/>
<path fill="#F7BEC6" opacity="1.000000" stroke="none" 
	d="
M312.267029,89.142250 
	C312.280212,88.499596 312.573425,87.965775 313.018433,87.161263 
	C313.170197,86.890572 313.550629,86.890373 313.738281,86.914902 
	C313.799469,87.908714 314.925537,89.625076 312.267029,89.142250 
z"/>
<path fill="#F7EBEC" opacity="1.000000" stroke="none" 
	d="
M319.981995,233.003601 
	C310.012970,233.003448 300.540344,233.045212 291.068298,232.987595 
	C285.275665,232.952362 282.985596,230.899811 282.977325,225.994949 
	C282.968536,220.788422 284.945190,219.006973 290.882812,218.997635 
	C303.678802,218.977493 316.474884,218.975006 329.270874,218.999405 
	C334.872620,219.010086 337.036041,220.920410 337.001404,225.681976 
	C336.966888,230.427170 334.275757,232.897934 328.953766,232.994019 
	C326.129578,233.045029 323.303741,233.003403 319.981995,233.003601 
z"/>
<path fill="#F7EBEC" opacity="1.000000" stroke="none" 
	d="
M194.995514,243.957397 
	C194.993835,242.152191 194.900452,240.811874 195.010117,239.488403 
	C195.221924,236.931946 194.208664,235.849091 191.574005,235.975220 
	C188.416183,236.126358 185.242355,236.092072 182.080872,235.982437 
	C177.243927,235.814713 174.929245,233.445068 175.004166,228.881775 
	C175.077454,224.417557 177.455551,222.289322 181.835190,221.975769 
	C186.083450,221.671631 191.530548,223.895981 194.257812,220.883743 
	C196.708984,218.176468 194.797745,212.901031 194.987793,208.763474 
	C195.192413,204.308609 198.335678,200.979904 202.375931,201.034576 
	C206.120300,201.085266 208.774094,204.356277 209.047760,208.843979 
	C209.306854,213.092712 207.109009,218.540436 210.135849,221.262939 
	C212.850372,223.704544 218.122528,221.798096 222.261261,221.989365 
	C227.068863,222.211533 229.165894,224.391907 229.097763,229.200287 
	C229.033249,233.754013 227.015060,235.848404 222.376251,235.985062 
	C219.213760,236.078278 216.034317,236.179474 212.884583,235.959885 
	C209.714798,235.738892 208.783508,237.099960 208.976074,240.047302 
	C209.160309,242.867157 209.070206,245.710190 208.998001,248.540421 
	C208.870819,253.524628 206.677567,255.902267 202.238586,255.996017 
	C197.631653,256.093292 195.185120,253.547287 195.004700,248.427856 
	C194.957779,247.096756 194.996262,245.762650 194.995514,243.957397 
z"/>
<path fill="#F6EAEC" opacity="1.000000" stroke="none" 
	d="
M180.976715,341.304291 
	C181.819138,336.179657 185.845093,333.875244 188.817184,330.855316 
	C190.951172,328.686981 191.125397,327.217896 188.799088,325.184143 
	C186.421783,323.105804 184.214432,320.810852 182.097382,318.462280 
	C179.066666,315.100128 179.577148,311.761841 182.733063,308.807983 
	C185.740860,305.992767 188.946442,306.139435 192.142288,308.616760 
	C195.502350,311.221375 197.511703,316.756653 201.820969,316.500092 
	C205.684830,316.270020 207.891388,311.248047 211.008926,308.536407 
	C214.711349,305.316071 218.735489,305.202484 221.679199,308.288696 
	C224.766891,311.525848 224.425369,314.810669 220.776154,318.775574 
	C217.977112,321.816772 212.915207,324.165253 212.782425,327.881805 
	C212.646683,331.681488 217.802429,334.022644 220.625198,337.003784 
	C223.594223,340.139404 224.122559,343.381866 221.593109,346.800720 
	C219.404449,349.758911 214.567154,350.083527 211.246460,347.450104 
	C208.780136,345.494263 206.582169,343.167999 204.439407,340.845490 
	C202.376480,338.609589 200.622574,338.658417 198.616699,340.881714 
	C196.833313,342.858429 194.760971,344.577240 193.008179,346.578064 
	C190.859802,349.030487 188.295624,349.629639 185.361099,348.617096 
	C182.141968,347.506287 180.518829,345.225922 180.976715,341.304291 
z"/>
<path fill="#F7EBEC" opacity="1.000000" stroke="none" 
	d="
M285.387909,320.845032 
	C282.079193,317.944763 282.346436,314.492859 283.495331,311.382843 
	C284.699005,308.124542 287.863983,307.892548 291.053131,307.917694 
	C303.857300,308.018707 316.662842,307.932922 329.467682,307.974487 
	C334.928040,307.992218 337.078369,310.031830 337.010559,314.886932 
	C336.943268,319.702942 334.665955,321.954834 329.435211,321.981415 
	C316.297974,322.048126 303.160217,322.004822 290.022644,322.002350 
	C288.528381,322.002045 287.010254,322.093994 285.387909,320.845032 
z"/>
<path fill="#F7EBEC" opacity="1.000000" stroke="none" 
	d="
M307.000458,348.004333 
	C301.178986,348.003510 295.855804,348.083649 290.536224,347.978973 
	C285.246857,347.874908 282.940765,345.654358 282.922150,340.944641 
	C282.902374,335.929962 284.901825,333.991364 290.381989,333.973785 
	C303.353302,333.932251 316.324890,333.938385 329.296234,333.970459 
	C334.624115,333.983643 336.841522,335.835144 337.009491,340.215668 
	C337.201630,345.226715 334.895233,347.799713 329.450623,347.945526 
	C322.138580,348.141357 314.817505,348.000580 307.000458,348.004333 
z"/>
<path fill="#F59AA7" opacity="1.000000" stroke="none" 
	d="
M281.930664,95.782776 
	C283.281586,92.166565 285.332336,92.879814 286.658447,95.028671 
	C287.897095,97.035774 288.841827,99.539879 286.844086,102.807465 
	C286.599396,98.988350 279.480225,101.903351 281.930664,95.782776 
z"/>
<path fill="#F59AA7" opacity="1.000000" stroke="none" 
	d="
M285.406219,89.505272 
	C286.820129,89.536369 287.027679,90.284081 286.638672,91.145432 
	C286.337921,91.811378 285.540680,92.036232 284.959229,91.646210 
	C283.987061,90.994141 284.490906,90.262901 285.406219,89.505272 
z"/>
<path fill="#F7C7CD" opacity="1.000000" stroke="none" 
	d="
M286.743774,114.140648 
	C287.278595,115.216087 286.861786,116.298088 286.191284,117.682709 
	C285.753082,117.835938 285.418823,117.654320 284.933594,117.221764 
	C285.344849,116.078186 285.907074,115.185562 286.743774,114.140648 
z"/>
<path fill="#F59AA7" opacity="1.000000" stroke="none" 
	d="
M277.002502,112.715401 
	C276.688751,112.504829 276.395905,111.972054 276.164673,111.413765 
	C276.143707,111.363205 276.519409,111.148361 276.710907,111.009811 
	C276.820648,111.468628 276.930389,111.927460 277.002502,112.715401 
z"/>
<path fill="#F7C7CD" opacity="1.000000" stroke="none" 
	d="
M277.167175,102.827721 
	C277.032104,102.418739 277.232574,101.989105 277.433044,101.559464 
	C278.006744,101.944580 277.814819,102.372467 277.167175,102.827721 
z"/>
<path fill="#F7C7CD" opacity="1.000000" stroke="none" 
	d="
M287.762421,112.150818 
	C287.879761,112.589668 287.742065,113.196777 287.300781,113.912834 
	C287.167267,113.454216 287.337311,112.886642 287.762421,112.150818 
z"/>
<path fill="#F7C7CD" opacity="1.000000" stroke="none" 
	d="
M289.699799,108.891144 
	C289.792603,109.306999 289.640686,109.949944 289.219299,110.789810 
	C289.118225,110.363899 289.286652,109.741066 289.699799,108.891144 
z"/>
<path fill="#F59AA7" opacity="1.000000" stroke="none" 
	d="
M279.197754,105.882210 
	C279.113586,105.575447 279.243011,105.162926 279.372467,104.750404 
	C280.038269,105.067665 279.676361,105.423897 279.197754,105.882210 
z"/>
<path fill="#F6AFBA" opacity="1.000000" stroke="none" 
	d="
M282.547607,109.480835 
	C282.575165,109.532066 282.520050,109.429611 282.547607,109.480835 
z"/>
<path fill="#F59AA7" opacity="1.000000" stroke="none" 
	d="
M277.541199,108.468262 
	C277.569153,108.519211 277.513275,108.417320 277.541199,108.468262 
z"/>
<path fill="#F7C7CD" opacity="1.000000" stroke="none" 
	d="
M274.376160,107.545135 
	C274.301971,107.430786 274.583679,107.367653 274.583679,107.367653 
	C274.583679,107.367653 274.450348,107.659477 274.376160,107.545135 
z"/>
<path fill="#F59AA7" opacity="1.000000" stroke="none" 
	d="
M279.006989,106.008812 
	C278.917023,106.046326 278.820526,106.075623 278.854065,106.046448 
	C278.984131,105.987968 279.000427,106.000595 279.006989,106.008812 
z"/>
<path fill="#F7C7CD" opacity="1.000000" stroke="none" 
	d="
M275.375610,105.583847 
	C275.293182,105.465385 275.593933,105.394882 275.593933,105.394882 
	C275.593933,105.394882 275.458069,105.702309 275.375610,105.583847 
z"/>
<path fill="#F7C7CD" opacity="1.000000" stroke="none" 
	d="
M277.027588,103.037697 
	C276.926086,103.296669 276.761292,103.490463 276.596497,103.684258 
	C276.561951,103.472954 276.527435,103.261658 276.662292,102.949364 
	C276.831635,102.848366 276.964264,102.972527 277.027588,103.037697 
z"/>
<path fill="#F58E9D" opacity="1.000000" stroke="none" 
	d="
M283.015289,118.022194 
	C282.923401,118.060478 282.813141,118.077782 282.828735,118.030060 
	C282.954590,117.965034 282.996948,118.001221 283.015289,118.022194 
z"/>
<path fill="#F6AFBA" opacity="1.000000" stroke="none" 
	d="
M279.869446,114.069481 
	C279.925751,114.012245 279.909515,114.919983 279.869446,114.069481 
z"/>
<path fill="#F6AFBA" opacity="1.000000" stroke="none" 
	d="
M279.984009,113.978027 
	C280.098206,113.969780 280.144073,113.010513 280.210022,113.981392 
	C280.056458,114.046761 280.006500,114.002609 279.984009,113.978027 
z"/>
<path fill="#F59AA7" opacity="1.000000" stroke="none" 
	d="
M277.027435,112.979691 
	C277.157166,113.115433 277.264252,113.270950 277.371307,113.426460 
	C277.279816,113.385216 277.188293,113.343971 277.030853,113.173615 
	C276.964905,113.044518 277.004761,112.999458 277.027435,112.979691 
z"/>
<path fill="#F7C7CD" opacity="1.000000" stroke="none" 
	d="
M288.706451,111.031052 
	C288.975342,111.144814 288.994263,111.336517 289.047424,111.816238 
	C288.896362,112.126839 288.711060,112.149414 288.256348,112.095734 
	C288.143433,111.715988 288.299957,111.412491 288.706451,111.031052 
z"/>
<path fill="#F6AFBA" opacity="1.000000" stroke="none" 
	d="
M281.421570,111.563461 
	C281.361115,111.472061 281.596863,111.431931 281.596863,111.431931 
	C281.596863,111.431931 281.481995,111.654854 281.421570,111.563461 
z"/>
<path fill="#F6AFBA" opacity="1.000000" stroke="none" 
	d="
M328.803528,93.220871 
	C331.832520,93.346130 330.208862,95.051064 330.020325,96.633255 
	C329.383667,98.100601 329.819519,99.526764 328.835999,100.882378 
	C328.269348,101.878944 327.762543,102.538528 327.188324,103.517761 
	C326.720428,104.305168 326.373352,104.805992 325.519653,105.651840 
	C324.529694,106.261292 324.019928,106.507553 323.263733,106.883583 
	C323.035767,105.629135 323.054230,104.244911 323.025269,102.416542 
	C322.477753,102.538918 321.977631,103.105438 321.248627,103.835304 
	C320.793884,101.676025 321.477478,99.586723 322.814117,97.297127 
	C323.119965,96.845032 323.266815,96.719986 323.689941,96.632362 
	C326.170563,96.548553 326.610931,93.911560 328.803528,93.220871 
z"/>
<path fill="#F593A1" opacity="1.000000" stroke="none" 
	d="
M325.788147,104.179749 
	C326.006653,102.782074 326.504944,101.900635 328.004364,101.153030 
	C328.961121,101.180000 329.310059,101.354187 329.827393,101.796555 
	C329.088623,106.311890 327.194855,110.146881 324.250427,113.812943 
	C323.208313,112.923622 321.191986,111.963974 323.796326,110.322250 
	C324.423279,109.637550 324.495636,109.029129 324.823669,108.210175 
	C325.001160,107.967148 325.010742,108.008888 324.989380,108.010345 
	C325.578064,107.362602 325.856110,106.589630 325.755432,105.392456 
	C325.658997,104.870354 325.635986,104.658638 325.788147,104.179749 
z"/>
<path fill="#F593A1" opacity="1.000000" stroke="none" 
	d="
M319.834839,117.111275 
	C319.722534,119.139084 319.358948,121.255608 318.927704,123.358246 
	C318.533325,125.281136 317.573486,126.391724 315.176636,125.270844 
	C317.242950,123.547539 317.006104,120.873352 317.955048,118.366043 
	C318.521057,117.727333 319.037567,117.460640 319.834839,117.111275 
z"/>
<path fill="#F6A9B4" opacity="1.000000" stroke="none" 
	d="
M318.632507,110.002640 
	C318.952209,110.520538 318.998840,111.094719 318.752869,111.484001 
	C317.918732,112.804062 317.916626,114.841362 316.025604,115.238930 
	C315.340332,115.383003 314.218903,114.770851 314.380829,113.777878 
	C314.725800,111.662506 315.741882,110.023651 318.632507,110.002640 
z"/>
<path fill="#F57D8F" opacity="1.000000" stroke="none" 
	d="
M303.089935,128.678406 
	C302.679382,128.705170 302.397827,128.499084 301.974854,128.062180 
	C302.459229,126.745125 303.084961,125.658897 303.855347,124.286667 
	C304.805237,122.887222 304.137970,121.167549 305.846191,120.154671 
	C306.545746,120.007561 306.925140,119.999840 307.588898,119.980942 
	C308.317871,120.325905 308.509521,120.787125 308.217133,121.675369 
	C307.986145,121.997261 308.001221,122.002319 308.001587,121.994400 
	C307.777527,122.213928 307.552063,122.440399 307.155640,122.834793 
	C306.985596,123.003685 307.002655,123.002396 307.001068,122.993942 
	C306.564331,123.417458 306.500824,124.004547 306.165771,124.779457 
	C305.986420,125.005745 306.003662,125.002640 306.001770,124.994156 
	C305.535522,125.432877 305.505585,126.081154 305.016571,126.826767 
	C304.266663,127.503166 303.742767,127.974373 303.089935,128.678406 
z"/>
<path fill="#F7BEC6" opacity="1.000000" stroke="none" 
	d="
M316.682098,92.163681 
	C316.983337,92.739868 316.991180,93.488136 316.989746,94.610626 
	C316.979370,95.154541 316.978302,95.324226 316.995605,95.747780 
	C316.986389,96.592789 316.808380,97.129425 316.253143,97.818619 
	C315.605988,98.059807 315.141876,98.078064 314.331818,98.054245 
	C314.191193,95.867905 315.382843,94.141151 316.682098,92.163681 
z"/>
<path fill="#F7BEC6" opacity="1.000000" stroke="none" 
	d="
M306.126709,119.681999 
	C305.602936,121.195045 305.039551,122.374817 304.238098,123.777618 
	C303.955139,123.806107 303.910278,123.611542 303.794373,123.126022 
	C302.607391,121.143433 303.291779,119.777855 304.822815,118.258438 
	C305.138641,118.008453 305.600433,118.017212 305.832153,118.012299 
	C306.071594,118.454506 306.079346,118.901611 306.126709,119.681999 
z"/>
<path fill="#F6AFBA" opacity="1.000000" stroke="none" 
	d="
M303.651398,137.014343 
	C303.735535,137.794540 303.491241,138.609314 303.122620,139.725464 
	C302.269043,139.846085 301.293945,139.837189 301.399689,138.766312 
	C301.503693,137.713089 302.364197,137.269775 303.651398,137.014343 
z"/>
<path fill="#F6A9B4" opacity="1.000000" stroke="none" 
	d="
M298.361877,136.004211 
	C298.160126,134.484451 298.360535,133.025833 300.801575,133.880936 
	C300.938446,135.416504 300.063721,135.991226 298.361877,136.004211 
z"/>
<path fill="#F59AA7" opacity="1.000000" stroke="none" 
	d="
M316.351440,97.994423 
	C316.216248,97.472435 316.362457,96.903328 316.761353,96.167923 
	C318.110352,96.889923 317.784943,97.499611 316.351440,97.994423 
z"/>
<path fill="#F6AFBA" opacity="1.000000" stroke="none" 
	d="
M304.763245,135.180939 
	C306.023438,135.933212 305.735870,136.553207 304.266876,136.973648 
	C304.159363,136.436264 304.340210,135.892776 304.763245,135.180939 
z"/>
<path fill="#F7C7CD" opacity="1.000000" stroke="none" 
	d="
M308.884338,130.691956 
	C308.318390,131.303635 307.761902,131.618530 306.877136,131.970459 
	C307.477173,131.683380 306.626770,128.772385 308.884338,130.691956 
z"/>
<path fill="#F7C7CD" opacity="1.000000" stroke="none" 
	d="
M325.715393,105.237297 
	C327.702454,106.288521 326.248871,106.988792 325.259186,107.914650 
	C324.992950,107.568367 325.017914,107.124947 325.041168,106.348282 
	C325.039490,106.015038 325.008850,106.001900 325.017212,106.009491 
	C325.153900,105.817970 325.282196,105.618858 325.715393,105.237297 
z"/>
<path fill="#F7BEC6" opacity="1.000000" stroke="none" 
	d="
M314.922455,101.647736 
	C313.865479,101.785881 312.877686,101.580437 313.928101,99.946289 
	C314.414062,100.274948 314.672485,100.810028 314.922455,101.647736 
z"/>
<path fill="#F59AA7" opacity="1.000000" stroke="none" 
	d="
M324.505920,97.009491 
	C323.930573,96.980927 323.739288,96.973618 323.260559,96.968193 
	C322.973114,96.970085 322.995331,96.483864 322.999084,96.240509 
	C323.002869,95.997162 323.000000,96.000153 322.998657,96.001991 
	C323.256104,95.727371 323.456543,95.413628 323.793945,94.858246 
	C324.175507,94.627518 324.362122,94.601379 324.755310,94.768158 
	C324.961884,94.961082 324.994507,94.990768 325.011566,95.004761 
	C325.619141,95.733292 325.506500,96.399376 324.505920,97.009491 
z"/>
<path fill="#F6AFBA" opacity="1.000000" stroke="none" 
	d="
M306.265991,124.871368 
	C306.158203,124.445770 306.330017,123.885803 306.750671,123.155655 
	C306.848206,123.569328 306.696899,124.153160 306.265991,124.871368 
z"/>
<path fill="#F7C7CD" opacity="1.000000" stroke="none" 
	d="
M324.747192,108.149658 
	C324.838684,108.564911 324.676178,109.162674 324.240845,109.923714 
	C324.143066,109.502045 324.318146,108.917107 324.747192,108.149658 
z"/>
<path fill="#F7C7CD" opacity="1.000000" stroke="none" 
	d="
M317.733398,101.138550 
	C317.873352,101.590630 317.711670,102.155319 317.244629,102.826820 
	C317.103485,102.372810 317.267639,101.811989 317.733398,101.138550 
z"/>
<path fill="#F7C7CD" opacity="1.000000" stroke="none" 
	d="
M317.973633,100.974319 
	C318.097290,100.529129 318.240570,100.102165 318.383850,99.675201 
	C319.007965,100.006516 318.783386,100.398605 318.249634,100.911697 
	C318.035034,101.025940 317.993225,100.992538 317.973633,100.974319 
z"/>
<path fill="#F6AFBA" opacity="1.000000" stroke="none" 
	d="
M308.233215,122.011688 
	C307.959534,121.547119 307.932892,121.096985 307.889771,120.308304 
	C308.252502,120.426865 308.631744,120.883957 308.993164,121.686058 
	C308.975311,122.031059 308.480316,122.026123 308.233215,122.011688 
z"/>
<path fill="#F6A9B4" opacity="1.000000" stroke="none" 
	d="
M320.994019,103.988876 
	C320.819000,104.533195 320.646637,105.089394 320.240601,105.825424 
	C320.181274,105.449814 320.355560,104.894379 320.774780,104.168793 
	C321.019745,103.998642 320.996704,104.000763 320.994019,103.988876 
z"/>
<path fill="#F7C7CD" opacity="1.000000" stroke="none" 
	d="
M316.253967,104.866928 
	C315.990753,104.562500 315.990784,104.114700 315.993408,103.331085 
	C315.996033,102.995255 316.466034,102.922295 316.702698,102.927963 
	C316.939331,102.933632 316.993683,102.992149 317.022522,103.021255 
	C316.873260,103.608093 316.695190,104.165825 316.253967,104.866928 
z"/>
<path fill="#F6AFBA" opacity="1.000000" stroke="none" 
	d="
M305.093506,126.904343 
	C305.024384,126.465836 305.258209,125.899704 305.745972,125.159622 
	C305.798706,125.582680 305.597565,126.179703 305.093506,126.904343 
z"/>
<path fill="#F6A9B4" opacity="1.000000" stroke="none" 
	d="
M318.935242,108.865295 
	C318.837524,108.886459 318.732391,108.719017 318.627258,108.551575 
	C318.727448,108.593285 318.827637,108.634995 318.935242,108.865295 
z"/>
<path fill="#F6AFBA" opacity="1.000000" stroke="none" 
	d="
M322.994232,106.991928 
	C322.907562,107.021118 322.827301,107.058609 322.882172,107.054733 
	C323.017334,107.013359 323.000610,107.000221 322.994232,106.991928 
z"/>
<path fill="#F6A9B4" opacity="1.000000" stroke="none" 
	d="
M320.047791,107.139847 
	C320.119781,107.141304 320.235870,107.286270 320.351990,107.431244 
	C320.265320,107.381950 320.178619,107.332657 320.047791,107.139847 
z"/>
<path fill="#F6A9B4" opacity="1.000000" stroke="none" 
	d="
M319.998169,107.001450 
	C319.820709,106.834923 319.629364,106.679039 319.482880,106.488625 
	C319.453918,106.450981 319.597656,106.280472 319.834351,106.088234 
	C320.006958,106.005249 320.000000,105.999931 319.996582,105.996506 
	C319.996124,106.160294 319.999115,106.327499 320.002869,106.745529 
	C320.003662,106.996338 320.000000,107.000000 319.998169,107.001450 
z"/>
<path fill="#F7BEC6" opacity="1.000000" stroke="none" 
	d="
M313.131897,98.231255 
	C313.168213,97.987366 313.336914,97.981934 313.758789,97.981491 
	C314.043823,98.183121 314.075684,98.379745 314.102112,98.877640 
	C313.819183,98.942513 313.541748,98.706108 313.131897,98.231255 
z"/>
<path fill="#F593A1" opacity="1.000000" stroke="none" 
	d="
M313.930359,124.851257 
	C313.858429,125.010216 313.686249,125.012245 313.255798,125.011642 
	C313.275024,124.904121 313.552582,124.799217 313.930359,124.851257 
z"/>
<path fill="#F6AFBA" opacity="1.000000" stroke="none" 
	d="
M309.020386,121.983978 
	C309.153931,122.128456 309.270844,122.287079 309.387756,122.445702 
	C309.291962,122.400917 309.196167,122.356140 309.037842,122.171211 
	C308.975311,122.031059 309.003754,121.998108 309.020386,121.983978 
z"/>
<path fill="#F7C7CD" opacity="1.000000" stroke="none" 
	d="
M309.582611,127.650322 
	C309.477997,127.748497 309.422607,127.412628 309.422607,127.412628 
	C309.422607,127.412628 309.687225,127.552147 309.582611,127.650322 
z"/>
<path fill="#F6AFBA" opacity="1.000000" stroke="none" 
	d="
M307.235901,122.933174 
	C307.159119,122.714371 307.332611,122.425056 307.754059,122.061111 
	C307.830048,122.278542 307.658112,122.570602 307.235901,122.933174 
z"/>
<path fill="#F6A9B4" opacity="1.000000" stroke="none" 
	d="
M303.089050,129.949020 
	C302.907257,129.852005 302.923492,129.677643 302.963806,129.241501 
	C303.172882,129.166519 303.370972,129.343414 303.528137,129.551300 
	C303.550293,129.580612 303.372375,129.761154 303.089050,129.949020 
z"/>
<path fill="#F58495" opacity="1.000000" stroke="none" 
	d="
M305.460571,130.524170 
	C305.435699,130.479141 305.485443,130.569199 305.460571,130.524170 
z"/>
<path fill="#F6A9B4" opacity="1.000000" stroke="none" 
	d="
M319.026764,108.979507 
	C319.226440,109.137032 319.417053,109.305382 319.554138,109.509628 
	C319.587219,109.558876 319.443115,109.727020 319.210083,109.935791 
	C319.039703,110.031097 318.997986,109.996956 318.977478,109.978119 
	C318.957001,109.959282 318.946075,109.505875 318.944366,109.279892 
	C318.942657,109.053902 318.998047,109.003517 319.026764,108.979507 
z"/>
<path fill="#F593A1" opacity="1.000000" stroke="none" 
	d="
M317.996948,118.002457 
	C317.878723,117.868164 317.763580,117.731415 317.648407,117.594666 
	C317.731110,117.640472 317.813812,117.686279 317.950531,117.863052 
	C318.004547,117.994019 318.000000,118.000000 317.996948,118.002457 
z"/>
<path fill="#F6A9B4" opacity="1.000000" stroke="none" 
	d="
M315.550415,117.560486 
	C315.479340,117.610222 315.461212,117.411697 315.461212,117.411697 
	C315.461212,117.411697 315.621490,117.510750 315.550415,117.560486 
z"/>
<path fill="#F58E9D" opacity="1.000000" stroke="none" 
	d="
M328.001831,101.001137 
	C328.488129,99.786407 328.972626,98.570679 329.722595,97.158371 
	C330.096405,97.287552 330.286133,97.555695 330.777161,97.882614 
	C331.996063,98.764526 332.176971,99.648399 331.125214,100.850021 
	C330.198730,101.565018 329.422058,101.524841 328.317871,101.221649 
	C327.997559,100.996994 328.000000,101.000137 328.001831,101.001137 
z"/>
<path fill="#F6AFBA" opacity="1.000000" stroke="none" 
	d="
M328.013306,101.266907 
	C328.716522,101.004105 329.435486,101.011215 330.510498,101.022598 
	C330.804962,101.335823 330.650635,101.588058 330.210571,101.901939 
	C329.278564,102.172417 328.337891,103.153969 328.013306,101.266907 
z"/>
<path fill="#F593A1" opacity="1.000000" stroke="none" 
	d="
M317.527374,128.542358 
	C317.477509,128.571259 317.577240,128.513443 317.527374,128.542358 
z"/>
<path fill="#F58393" opacity="1.000000" stroke="none" 
	d="
M304.890594,117.922546 
	C304.714905,119.384033 304.291168,120.759613 303.795410,122.485123 
	C303.009857,123.386391 302.278198,123.815971 301.143585,123.080322 
	C300.616638,122.550293 300.522797,122.081177 300.820709,121.285080 
	C301.051331,120.993614 300.994171,120.997482 301.003906,121.024414 
	C301.452362,120.574707 301.494049,119.915482 302.038086,119.187668 
	C303.058685,118.583649 303.210083,116.919228 304.890594,117.922546 
z"/>
<path fill="#F7C7CD" opacity="1.000000" stroke="none" 
	d="
M301.990509,119.142525 
	C302.056427,119.593956 301.822845,120.183983 301.301453,120.912682 
	C301.239441,120.461273 301.465240,119.871201 301.990509,119.142525 
z"/>
<path fill="#F7C7CD" opacity="1.000000" stroke="none" 
	d="
M300.838104,121.141525 
	C301.030945,121.435913 301.010559,121.878204 300.944519,122.649200 
	C300.228455,122.509048 300.063812,121.958122 300.838104,121.141525 
z"/>
<path fill="#F57D8F" opacity="1.000000" stroke="none" 
	d="
M300.814209,128.044266 
	C300.839874,128.218063 300.613586,128.491302 300.140137,128.871948 
	C300.116028,128.700806 300.339142,128.422241 300.814209,128.044266 
z"/>
<path fill="#F57D8F" opacity="1.000000" stroke="none" 
	d="
M294.651855,115.890671 
	C295.159851,116.958519 295.330231,117.778625 295.747925,118.799614 
	C295.282684,119.887085 295.158081,122.068962 293.670532,121.261032 
	C292.358429,120.548393 292.246124,118.576836 292.984863,116.658707 
	C293.251862,115.744965 293.680237,115.508064 294.651855,115.890671 
z"/>
<path fill="#F6AFBA" opacity="1.000000" stroke="none" 
	d="
M295.215332,115.935028 
	C294.550140,116.154121 294.110809,116.169830 293.350342,116.269638 
	C293.014404,115.817879 292.999634,115.282036 292.990875,114.346176 
	C293.793152,113.019257 294.589417,112.092339 295.687561,111.079315 
	C295.806702,112.572670 295.623993,114.152153 295.215332,115.935028 
z"/>
<path fill="#F6AFBA" opacity="1.000000" stroke="none" 
	d="
M297.876892,103.363876 
	C298.779327,103.022644 299.533600,103.017708 300.666840,103.005096 
	C300.384613,105.080795 299.723450,107.164177 299.024963,109.606140 
	C298.201843,110.289711 297.416016,110.614700 296.310364,110.965027 
	C295.729401,108.359901 296.215698,105.907639 297.876892,103.363876 
z"/>
<path fill="#F7C7CD" opacity="1.000000" stroke="none" 
	d="
M309.981812,90.345947 
	C310.506226,89.737518 311.008759,89.472832 311.774048,89.092552 
	C312.634216,93.390846 309.924408,96.467918 307.102509,99.671249 
	C305.730072,98.285851 306.477936,96.985214 306.791168,95.340668 
	C307.014526,95.005211 307.001007,95.000069 307.007019,95.005737 
	C308.962555,94.230385 309.360016,92.390999 309.981812,90.345947 
z"/>
<path fill="#ECD9E2" opacity="1.000000" stroke="none" 
	d="
M318.320648,87.756348 
	C319.361938,87.084564 319.899170,87.372986 320.049316,88.676247 
	C319.250336,89.919083 318.407501,90.866234 317.263672,91.913895 
	C317.376190,90.699989 317.789703,89.385582 318.320648,87.756348 
z"/>
<path fill="#F7C7CD" opacity="1.000000" stroke="none" 
	d="
M303.980469,103.310135 
	C304.256012,102.225395 304.589874,101.429222 304.974335,100.311859 
	C305.024933,99.990685 304.994904,99.999611 304.990570,100.014008 
	C305.280304,99.679504 305.658905,99.500305 306.414185,99.594345 
	C306.717560,99.720474 306.922546,99.927490 307.024902,100.032349 
	C305.814880,101.038628 306.938385,104.113495 303.980469,103.310135 
z"/>
<path fill="#F59AA7" opacity="1.000000" stroke="none" 
	d="
M298.982300,109.987457 
	C300.018921,110.682777 300.178406,111.571327 299.239349,112.806213 
	C298.984375,112.230095 298.988220,111.475372 298.989838,110.342690 
	C298.987640,109.964729 298.996857,110.002563 298.982300,109.987457 
z"/>
<path fill="#F6A9B4" opacity="1.000000" stroke="none" 
	d="
M305.021057,109.028984 
	C304.909241,109.117973 304.786774,109.957184 304.768372,109.003593 
	C304.919342,108.932091 304.989075,108.994736 305.021057,109.028984 
z"/>
<path fill="#F7C7CD" opacity="1.000000" stroke="none" 
	d="
M303.391754,106.518509 
	C303.332001,106.424286 303.568939,106.382324 303.568939,106.382324 
	C303.568939,106.382324 303.451508,106.612732 303.391754,106.518509 
z"/>
<path fill="#F59AA7" opacity="1.000000" stroke="none" 
	d="
M299.006775,113.008972 
	C298.917328,113.043488 298.820404,113.068802 298.851990,113.039459 
	C298.980530,112.984818 298.999298,112.999763 299.006775,113.008972 
z"/>
<path fill="#F6AFBA" opacity="1.000000" stroke="none" 
	d="
M299.778687,99.058594 
	C299.806580,99.217857 299.605743,99.503609 299.161682,99.898529 
	C299.128937,99.733490 299.339417,99.459290 299.778687,99.058594 
z"/>
<path fill="#F57D8F" opacity="1.000000" stroke="none" 
	d="
M324.087982,97.298752 
	C324.408722,96.521439 324.695526,96.054634 325.005493,95.303291 
	C326.299377,94.534531 325.291016,90.363190 328.736542,92.956299 
	C327.695282,94.962379 326.605621,97.188751 324.921783,98.790474 
	C323.854767,99.805496 324.242828,98.133217 324.087982,97.298752 
z"/>
<path fill="#F57D8F" opacity="1.000000" stroke="none" 
	d="
M324.963684,94.622620 
	C324.791718,94.958923 324.621552,94.956772 324.196533,94.968781 
	C323.787384,95.121658 323.633057,95.260376 323.239960,95.199394 
	C323.149017,94.118332 322.680389,92.812294 323.899719,92.577507 
	C325.039185,92.358086 324.835724,93.554123 324.963684,94.622620 
z"/>
<path fill="#F58393" opacity="1.000000" stroke="none" 
	d="
M322.991638,95.250694 
	C323.001221,94.999695 323.472137,94.994690 323.706909,94.988815 
	C323.867035,95.311737 323.695496,95.578125 323.212219,95.892960 
	C322.992249,95.836449 322.987183,95.669075 322.991638,95.250694 
z"/>
<path fill="#F58E9D" opacity="1.000000" stroke="none" 
	d="
M306.777313,99.339630 
	C306.336426,99.801384 305.955322,99.882294 305.280212,99.995811 
	C304.893280,98.302551 305.419769,96.770081 306.724365,95.197571 
	C306.955383,96.323074 306.896210,97.640930 306.777313,99.339630 
z"/>
<path fill="#F58E9D" opacity="1.000000" stroke="none" 
	d="
M326.008270,104.769165 
	C325.923737,105.376434 325.745728,105.643768 325.255920,105.936966 
	C325.177948,105.442444 325.330322,104.867805 325.722961,104.102875 
	C325.974243,104.102875 325.985229,104.293182 326.008270,104.769165 
z"/>
<path fill="#F58393" opacity="1.000000" stroke="none" 
	d="
M322.991547,101.988022 
	C323.103790,101.990540 323.114929,101.144806 323.189514,101.977310 
	C323.037109,102.030594 323.005188,102.003639 322.991547,101.988022 
z"/>
</svg>